<?xml version="1.0" encoding="UTF-8"?>
<svg version="1.1" xmlns="http://www.w3.org/2000/svg" width="148" height="148">
<path d="M0 0 C8.23723959 -1.26129699 16.89391229 -2.38097915 25 0 C30.92262421 4.37411822 34.26609425 10.96759041 37.60302734 17.38623047 C41.20922835 24.71710314 41.20922835 24.71710314 47 30 C47.24621094 29.43410156 47.49242187 28.86820313 47.74609375 28.28515625 C49.21536224 25.60751742 50.97752435 23.66956388 53.0625 21.4375 C57.18739411 16.94727711 61.05794892 12.3088307 64.859375 7.54296875 C67.12793711 4.84801632 69.36364612 2.3406491 72 0 C75.8125 -0.3125 75.8125 -0.3125 79 0 C76.00314676 4.95132275 72.33646022 9.02340551 68.43359375 13.28515625 C65.21149832 16.87962868 62.18868578 20.61969051 59.15234375 24.37109375 C56.18823137 27.99150687 53.11260732 31.5070741 50 35 C52.77904737 40.01002276 55.78446814 44.74171788 59.0625 49.4375 C60.0365142 50.8437113 61.01047082 52.24996249 61.984375 53.65625 C62.48130859 54.37167969 62.97824219 55.08710937 63.49023438 55.82421875 C82 82.49935317 82 82.49935317 82 84 C73.76099563 85.26156722 65.10946217 86.37381409 57 84 C51.10110166 79.65356732 47.80174164 73.07965232 44.48730469 66.69238281 C42.39754325 62.90940692 39.88696107 59.48350839 37.32470703 56.00927734 C36 54 36 54 36 52 C35.34 52 34.68 52 34 52 C33.78472656 52.52335937 33.56945312 53.04671875 33.34765625 53.5859375 C31.46616409 56.95626259 28.96655106 59.73325709 26.4375 62.625 C25.9024585 63.24238037 25.36741699 63.85976074 24.81616211 64.49584961 C20.27443972 69.72191328 15.67906124 74.89644661 11 80 C10.50886719 80.56847656 10.01773438 81.13695313 9.51171875 81.72265625 C7.39501283 84.07527986 6.3972455 84.95586161 3.1875 85.3125 C2.465625 85.209375 1.74375 85.10625 1 85 C1 80.53795309 3.90073132 78.34765626 6.75 75.1875 C7.94306605 73.83755565 9.13576577 72.48728746 10.328125 71.13671875 C10.93849609 70.45013184 11.54886719 69.76354492 12.17773438 69.05615234 C14.97965511 65.89460673 17.74366574 62.70128536 20.5 59.5 C20.97920898 58.94981201 21.45841797 58.39962402 21.95214844 57.83276367 C25.21838474 54.04450258 28.1396253 50.10401588 31 46 C30.65445068 45.50935059 30.30890137 45.01870117 29.95288086 44.51318359 C22.82508697 34.38341317 15.74460032 24.22228578 8.75 14 C8.10667725 13.06333496 7.46335449 12.12666992 6.80053711 11.16162109 C6.20120361 10.28328613 5.60187012 9.40495117 4.984375 8.5 C4.45553711 7.7265625 3.92669922 6.953125 3.38183594 6.15625 C2.09882933 4.15421566 1.01639191 2.14747871 0 0 Z M12 5 C12 8.45084513 12.59716916 9.22950746 14.52734375 11.9921875 C15.33751953 13.16297852 15.33751953 13.16297852 16.1640625 14.35742188 C16.74929687 15.18822266 17.33453125 16.01902344 17.9375 16.875 C18.53433594 17.73416016 19.13117187 18.59332031 19.74609375 19.47851562 C21.49170036 21.98970617 23.24548116 24.49503247 25 27 C26.50341503 29.16432561 28.0015869 31.33220235 29.5 33.5 C30.20125 34.510625 30.9025 35.52125 31.625 36.5625 C34.60180767 40.8623333 37.54924139 45.18227113 40.5 49.5 C47.27962958 59.43924762 47.27962958 59.43924762 54.16015625 69.30859375 C56 72 56 72 57.30859375 74.34765625 C58.4851946 76.57578751 58.4851946 76.57578751 61 79 C64.41163946 79.55980462 67.57856329 79.41854469 71 79 C66.37669454 69.40446037 59.79755268 60.79068392 53.68530273 52.11035156 C49.17171521 45.69434285 44.72385188 39.23668472 40.3125 32.75 C39.69036621 31.83541016 39.06823242 30.92082031 38.42724609 29.97851562 C37.20578213 28.18252909 35.98442544 26.38646961 34.76318359 24.59033203 C32.05867184 20.61707397 29.3444819 16.6505231 26.625 12.6875 C26.16649658 12.01750977 25.70799316 11.34751953 25.2355957 10.65722656 C23.28743379 7.69270199 23.28743379 7.69270199 21 5 C19.48071962 4.92820036 17.95832518 4.91607993 16.4375 4.9375 C15.19806641 4.95103516 15.19806641 4.95103516 13.93359375 4.96484375 C12.97646484 4.98224609 12.97646484 4.98224609 12 5 Z " fill="#1C1C1C" transform="translate(33,32)"/>
</svg>
